<?xml version="1.0" encoding="UTF-8" standalone="no"?>
<!DOCTYPE svg PUBLIC "-//W3C//DTD SVG 1.1//EN" "http://www.w3.org/Graphics/SVG/1.1/DTD/svg11.dtd">
<!-- Created with Vectornator (http://vectornator.io/) -->
<svg height="100%" stroke-miterlimit="10" style="fill-rule:nonzero;clip-rule:evenodd;stroke-linecap:round;stroke-linejoin:round;" version="1.1" viewBox="0 0 512 512" width="100%" xml:space="preserve" xmlns="http://www.w3.org/2000/svg" xmlns:vectornator="http://vectornator.io" xmlns:xlink="http://www.w3.org/1999/xlink">
<defs/>
<g id="Untitled" vectornator:layerName="Untitled">
<path d="M377.9 105.9L500.7 228.7C507.9 235.9 512 245.8 512 256C512 266.2 507.9 276.1 500.7 283.3L377.9 406.1C371.5 412.5 362.9 416 353.9 416C335.2 416 320 400.8 320 382.1L320 320L192 320C174.3 320 160 305.7 160 288L160 224C160 206.3 174.3 192 192 192L320 192L320 129.9C320 111.2 335.2 96 353.9 96C362.9 96 371.5 99.6 377.9 105.9ZM160 96L96 96C78.3 96 64 110.3 64 128L64 384C64 401.7 78.3 416 96 416L160 416C177.7 416 192 430.3 192 448C192 465.7 177.7 480 160 480L96 480C43 480 0 437 0 384L0 128C0 75 43 32 96 32L160 32C177.7 32 192 46.3 192 64C192 81.7 177.7 96 160 96Z" fill="#ff4646" fill-rule="nonzero" opacity="1" stroke="none" vectornator:layerName="path"/>
</g>
</svg>
